<?xml version="1.0" encoding="UTF-8" standalone="no"?>
<!-- Created with Inkscape (http://www.inkscape.org/) -->

<svg
   xmlns:dc="http://purl.org/dc/elements/1.1/"
   xmlns:cc="http://creativecommons.org/ns#"
   xmlns:rdf="http://www.w3.org/1999/02/22-rdf-syntax-ns#"
   xmlns:svg="http://www.w3.org/2000/svg"
   xmlns="http://www.w3.org/2000/svg"
   xmlns:sodipodi="http://sodipodi.sourceforge.net/DTD/sodipodi-0.dtd"
   xmlns:inkscape="http://www.inkscape.org/namespaces/inkscape"
   id="svg3068"
   version="1.1"
   inkscape:version="0.48.3.1 r9886"
   width="3200"
   height="3200"
   xml:space="preserve"
   sodipodi:docname="brain-grid-logo-new-1.0.svg"><metadata
     id="metadata3074"><rdf:RDF><cc:Work
         rdf:about=""><dc:format>image/svg+xml</dc:format><dc:type
           rdf:resource="http://purl.org/dc/dcmitype/StillImage" /><dc:title></dc:title></cc:Work></rdf:RDF></metadata><defs
     id="defs3072"><clipPath
       clipPathUnits="userSpaceOnUse"
       id="clipPath3082"><path
         d="M 0,360 360,360 360,0 0,0 0,360 z"
         id="path3084"
         inkscape:connector-curvature="0" /></clipPath><clipPath
       clipPathUnits="userSpaceOnUse"
       id="clipPath3082-6"><path
         inkscape:connector-curvature="0"
         d="M 0,360 360,360 360,0 0,0 0,360 z"
         id="path3084-9" /></clipPath><clipPath
       clipPathUnits="userSpaceOnUse"
       id="clipPath3082-6-0"><path
         inkscape:connector-curvature="0"
         d="M 0,360 360,360 360,0 0,0 0,360 z"
         id="path3084-9-4" /></clipPath><clipPath
       clipPathUnits="userSpaceOnUse"
       id="clipPath3082-6-0-2"><path
         inkscape:connector-curvature="0"
         d="M 0,360 360,360 360,0 0,0 0,360 z"
         id="path3084-9-4-1" /></clipPath><clipPath
       clipPathUnits="userSpaceOnUse"
       id="clipPath3082-6-0-2-6"><path
         inkscape:connector-curvature="0"
         d="M 0,360 360,360 360,0 0,0 0,360 z"
         id="path3084-9-4-1-6" /></clipPath><clipPath
       clipPathUnits="userSpaceOnUse"
       id="clipPath3082-6-0-2-8"><path
         inkscape:connector-curvature="0"
         d="M 0,360 360,360 360,0 0,0 0,360 z"
         id="path3084-9-4-1-4" /></clipPath><clipPath
       clipPathUnits="userSpaceOnUse"
       id="clipPath3082-6-0-2-2"><path
         inkscape:connector-curvature="0"
         d="M 0,360 360,360 360,0 0,0 0,360 z"
         id="path3084-9-4-1-7" /></clipPath></defs><sodipodi:namedview
     pagecolor="#919395"
     bordercolor="#666666"
     borderopacity="1"
     objecttolerance="10"
     gridtolerance="10"
     guidetolerance="10"
     inkscape:pageopacity="0"
     inkscape:pageshadow="2"
     inkscape:window-width="773"
     inkscape:window-height="848"
     id="namedview3070"
     showgrid="true"
     inkscape:zoom="0.16"
     inkscape:cx="1012.4164"
     inkscape:cy="1270.0079"
     inkscape:window-x="54"
     inkscape:window-y="24"
     inkscape:window-maximized="0"
     inkscape:current-layer="g3076"
     inkscape:snap-grids="true"
     inkscape:object-paths="false"
     inkscape:snap-nodes="false"
     inkscape:snap-to-guides="false"
     inkscape:snap-global="true"
     inkscape:snap-bbox="true"><inkscape:grid
       type="xygrid"
       id="grid3253"
       empspacing="5"
       visible="true"
       enabled="true"
       snapvisiblegridlinesonly="true" /></sodipodi:namedview><g
     id="g3076"
     inkscape:groupmode="layer"
     inkscape:label="brain-grid-logo"
     transform="matrix(1.25,0,0,-1.25,0,3200)"><rect
       style="fill:#39275b;fill-opacity:1;stroke:none"
       id="rect3890"
       width="1216"
       height="1216"
       x="32"
       y="-1248"
       transform="scale(1,-1)" /><rect
       style="fill:#39275b;fill-opacity:1;stroke:none"
       id="rect3890-9"
       width="1120"
       height="1120"
       x="128"
       y="-2432"
       transform="scale(1,-1)" /><rect
       style="fill:#39275b;fill-opacity:1;stroke:none"
       id="rect3890-9-5"
       width="1184"
       height="1184"
       x="1312"
       y="-2496"
       transform="scale(1,-1)" /><rect
       style="fill:#39275b;fill-opacity:1;stroke:none"
       id="rect3890-3"
       width="1152"
       height="1152"
       x="1312"
       y="-1248"
       transform="scale(1,-1)" /><g
       transform="matrix(7.1728161,0,0,7.1728161,-127.94669,-202.02158)"
       id="g3078"
       style="fill:#c79900;fill-opacity:1;stroke:#39275b;stroke-width:3.58018373999999984;stroke-linejoin:round;stroke-miterlimit:4;stroke-opacity:1;stroke-dasharray:none"><g
         id="g3080"
         clip-path="url(#clipPath3082-6-0-2-2)"
         style="fill:#c79900;fill-opacity:1;stroke:#39275b;stroke-width:3.58018373999999984;stroke-linejoin:round;stroke-miterlimit:4;stroke-opacity:1;stroke-dasharray:none"><path
           inkscape:connector-curvature="0"
           d="m 203.61018,124.69954 -16.664,0 c -0.336,25.313 -4.668,34.274 -10,39.168 -52.961,1.957 -43.17,23.332 -42.17,27.164 -48.999997,12.836 -47.831997,26.832 -48.165997,33.168 -4.125,3.688 -4.437,14.125 1.875,17.748 0.25,24.625 46.124997,51.188 63.292997,50.084 5.668,3.248 38.418,2.166 42,-0.334 3.332,-2.168 4.731,-2.459 6.645,-0.875 0.5,0.938 1.496,1.438 2,1.438 9.441,-0.014 27.101,-7.572 34.816,-14.813 10.625,0.375 17.5,-8.75 17.875,-14.25 8.875,-3.75 15.375,-14.375 14.168,-21.998 7.332,-3.125 11.457,-10.5 9.5,-17.168 10.5,-10.25 3.832,-52.332 -15.836,-42 6.5,-31.5 -44.336,-38.082 -49.168,-29.332 -2.918,-7.5 -10.168,-28 -10.168,-28"
           style="fill:#c79900;fill-opacity:1;fill-rule:evenodd;stroke:#39275b;stroke-width:3.58018373999999984;stroke-linejoin:round;stroke-miterlimit:4;stroke-opacity:1;stroke-dasharray:none"
           id="path3088" /></g></g></g></svg>