<?xml version="1.0" encoding="UTF-8" standalone="no"?>
<!-- Created with Inkscape (http://www.inkscape.org/) -->

<svg
   xmlns:dc="http://purl.org/dc/elements/1.1/"
   xmlns:cc="http://creativecommons.org/ns#"
   xmlns:rdf="http://www.w3.org/1999/02/22-rdf-syntax-ns#"
   xmlns:svg="http://www.w3.org/2000/svg"
   xmlns="http://www.w3.org/2000/svg"
   xmlns:sodipodi="http://sodipodi.sourceforge.net/DTD/sodipodi-0.dtd"
   xmlns:inkscape="http://www.inkscape.org/namespaces/inkscape"
   id="svg2"
   version="1.1"
   inkscape:version="0.48.3.1 r9886"
   width="3200"
   height="3200"
   xml:space="preserve"
   sodipodi:docname="brain-grid-logo-new-0.1-grey.svg"><metadata
     id="metadata8"><rdf:RDF><cc:Work
         rdf:about=""><dc:format>image/svg+xml</dc:format><dc:type
           rdf:resource="http://purl.org/dc/dcmitype/StillImage" /><dc:title></dc:title></cc:Work></rdf:RDF></metadata><defs
     id="defs6"><clipPath
       clipPathUnits="userSpaceOnUse"
       id="clipPath16"><path
         d="M 0,360 360,360 360,0 0,0 0,360 z"
         id="path18"
         inkscape:connector-curvature="0" /></clipPath><clipPath
       clipPathUnits="userSpaceOnUse"
       id="clipPath16-6"><path
         inkscape:connector-curvature="0"
         d="M 0,360 360,360 360,0 0,0 0,360 z"
         id="path18-8" /></clipPath></defs><sodipodi:namedview
     pagecolor="#ffffff"
     bordercolor="#666666"
     borderopacity="1"
     objecttolerance="10"
     gridtolerance="10"
     guidetolerance="10"
     inkscape:pageopacity="0"
     inkscape:pageshadow="2"
     inkscape:window-width="1547"
     inkscape:window-height="876"
     id="namedview4"
     showgrid="true"
     inkscape:snap-grids="true"
     inkscape:snap-to-guides="false"
     inkscape:zoom="0.18541911"
     inkscape:cx="2255.7033"
     inkscape:cy="1512.626"
     inkscape:window-x="53"
     inkscape:window-y="24"
     inkscape:window-maximized="1"
     inkscape:current-layer="g10"><inkscape:grid
       type="xygrid"
       id="grid2999"
       empspacing="5"
       visible="true"
       enabled="true"
       snapvisiblegridlinesonly="true" /></sodipodi:namedview><g
     id="g10"
     inkscape:groupmode="layer"
     inkscape:label="brain-grid-logo"
     transform="matrix(1.25,0,0,-1.25,0,3200)"><rect
       style="fill:#1a1a1a;fill-opacity:1;stroke:none"
       id="rect3001"
       width="2553.8062"
       height="2553.8062"
       x="0.00013520957"
       y="-2553.8062"
       transform="scale(1,-1)" /><g
       id="g12"
       style="fill:#ffffff"
       transform="matrix(7.8821172,0,0,7.8821172,-141.87798,-141.87798)"><g
         id="g14"
         clip-path="url(#clipPath16-6)"
         style="fill:#ffffff"><path
           d="m 42,186 0,132 132,0 0,-41.392 c 4.286,-0.191 8.413,-0.577 12,-1.145 l 0,54.537 -156,0 0,-156 48.908,0 c -3.6,4.007 -5.62,8.04 -6.703,12 L 42,186 z m 249.437,0 c 0.426,-2.619 0.637,-5.336 0.637,-8.086 0,-1.302 -0.046,-2.609 -0.136,-3.914 l 26.062,0 0,-132 -132,0 0,41.324 -12,0 0,-53.324 156,0 0,156 -38.563,0 z M 174,146.474 l 4.137,-0.154 3.256,-2.988 c 1.711,-1.571 3.244,-3.313 4.607,-5.26 l 0,35.928 81.778,0 c 0.182,1.544 0.281,3.109 0.281,4.607 0,3.131 -0.42,5.887 -1.346,7.393 l -80.713,0 0,64.916 c -0.333,0.17 -0.667,0.345 -1.004,0.535 -2.054,0.489 -6.258,0.859 -10.996,1.058 l 0,-66.509 -72.738,0 c 5.918,-4.125 15.986,-8.137 30.144,-12 l 42.594,0 0,-27.526 z m 9.242,106.008 c 0.594,-0.386 1.172,-0.703 1.754,-1.031 0.137,-0.031 0.309,-0.062 0.426,-0.096 l -2.18,1.127 z"
           style="fill:#ffffff;fill-opacity:1;fill-rule:nonzero;stroke:none"
           id="path20"
           inkscape:connector-curvature="0" /><path
           d="m 199.941,95.324 -16.664,0 c -0.336,25.313 -4.668,34.274 -10,39.168 -52.961,1.957 -43.17,23.332 -42.17,27.164 -49,12.836 -47.832,26.832 -48.166,33.168 -4.125,3.688 -4.437,14.125 1.875,17.748 0.25,24.625 46.125,51.188 63.293,50.084 5.668,3.248 38.418,2.166 42,-0.334 3.332,-2.168 4.731,-2.459 6.645,-0.875 0.5,0.938 1.496,1.438 2,1.438 9.441,-0.014 27.101,-7.572 34.816,-14.813 10.625,0.375 17.5,-8.75 17.875,-14.25 8.875,-3.75 15.375,-14.375 14.168,-21.998 7.332,-3.125 11.457,-10.5 9.5,-17.168 10.5,-10.25 3.832,-52.332 -15.836,-42 6.5,-31.5 -44.336,-38.082 -49.168,-29.332 -2.918,-7.5 -10.168,-28 -10.168,-28"
           style="fill:#ffffff;fill-opacity:1;fill-rule:evenodd;stroke:none"
           id="path22"
           inkscape:connector-curvature="0" /></g></g></g></svg>